<?xml version="1.0" encoding="utf-8" ?>
<!DOCTYPE svg PUBLIC "-//W3C//DTD SVG 1.1//EN" "http://www.w3.org/Graphics/SVG/1.1/DTD/svg11.dtd">
<svg height="380" version="1.1" width="668" xmlns="http://www.w3.org/2000/svg">
<polygon fill="#ffffc8" points="14,14 604,14 604,37 653,37 653,365 14,365 14,14" stroke="#ffffc8" stroke-width="1"/>
<rect fill="none" height="23" stroke="#000000" stroke-width="1" width="590" x="14" y="14"/>
<text font-family="Dialog" font-size="12" x="19" y="27">
factory</text>
<rect fill="none" height="328" stroke="#000000" stroke-width="1" width="639" x="14" y="37"/>
<polygon fill="#c8ffff" points="30,126 284,126 284,149 333,149 333,349 30,349 30,126" stroke="#c8ffff" stroke-width="1"/>
<rect fill="none" height="23" stroke="#000000" stroke-width="1" width="254" x="30" y="126"/>
<text font-family="Dialog" font-size="12" x="35" y="139">
computer</text>
<rect fill="none" height="200" stroke="#000000" stroke-width="1" width="303" x="30" y="149"/>
<polygon fill="#c8ffc8" points="46,254 116,254 116,277 165,277 165,333 46,333 46,254" stroke="#c8ffc8" stroke-width="1"/>
<rect fill="none" height="23" stroke="#000000" stroke-width="1" width="70" x="46" y="254"/>
<text font-family="Dialog" font-size="12" x="51" y="267">
laptop</text>
<rect fill="none" height="56" stroke="#000000" stroke-width="1" width="119" x="46" y="277"/>
<polygon fill="#c8ffc8" points="182,254 265,254 265,277 314,277 314,333 182,333 182,254" stroke="#c8ffc8" stroke-width="1"/>
<rect fill="none" height="23" stroke="#000000" stroke-width="1" width="83" x="182" y="254"/>
<text font-family="Dialog" font-size="12" x="187" y="267">
desktop</text>
<rect fill="none" height="56" stroke="#000000" stroke-width="1" width="132" x="182" y="277"/>
<polygon fill="#c8ffff" points="358,126 588,126 588,149 637,149 637,349 358,349 358,126" stroke="#c8ffff" stroke-width="1"/>
<rect fill="none" height="23" stroke="#000000" stroke-width="1" width="230" x="358" y="126"/>
<text font-family="Dialog" font-size="12" x="363" y="139">
printer</text>
<rect fill="none" height="200" stroke="#000000" stroke-width="1" width="279" x="358" y="149"/>
<rect fill="#ffffff" height="67" stroke="#ffffff" stroke-width="1" width="165" x="102" y="46"/>
<rect fill="none" height="67" stroke="#000000" stroke-width="1" width="165" x="102" y="46"/>
<text font-family="Dialog" font-size="12" font-style="italic" x="107" y="59">
abstract AbstractFactory</text>
<rect fill="#000000" height="1" stroke="#000000" stroke-width="1" width="165" x="102" y="69"/>
<rect fill="#000000" height="1" stroke="#000000" stroke-width="1" width="165" x="102" y="90"/>
<rect fill="#ffffff" height="66" stroke="#ffffff" stroke-width="1" width="109" x="110" y="166"/>
<rect fill="none" height="66" stroke="#000000" stroke-width="1" width="109" x="110" y="166"/>
<text font-family="Dialog" font-size="12" x="113" y="179">
ConcreteFactory</text>
<rect fill="#000000" height="1" stroke="#000000" stroke-width="1" width="109" x="110" y="189"/>
<rect fill="#000000" height="1" stroke="#000000" stroke-width="1" width="109" x="110" y="210"/>
<polyline fill="none" points="207,166 207,113" stroke="#000000" stroke-width="1"/>
<polygon fill="#ffffff" points="207,113 214,125 200,125" stroke="#ffffff" stroke-width="1"/>
<polygon fill="none" points="207,113 214,125 200,125" stroke="#000000" stroke-width="1"/>
<rect fill="#ffffff" height="66" stroke="#ffffff" stroke-width="1" width="113" x="502" y="166"/>
<rect fill="none" height="66" stroke="#000000" stroke-width="1" width="113" x="502" y="166"/>
<text font-family="Dialog" font-size="12" x="507" y="179">
ConcreteFactory</text>
<rect fill="#000000" height="1" stroke="#000000" stroke-width="1" width="113" x="502" y="189"/>
<rect fill="#000000" height="1" stroke="#000000" stroke-width="1" width="113" x="502" y="210"/>
<polyline fill="none" points="502,166 267,113" stroke="#000000" stroke-width="1"/>
<polygon fill="#ffffff" points="267,113 280,108 277,122" stroke="#ffffff" stroke-width="1"/>
<polygon fill="none" points="267,113 280,108 277,122" stroke="#000000" stroke-width="1"/>
<rect fill="#ffffff" height="64" stroke="#ffffff" stroke-width="1" width="115" x="430" y="46"/>
<rect fill="none" height="64" stroke="#000000" stroke-width="1" width="115" x="430" y="46"/>
<text font-family="Dialog" font-size="12" x="463" y="78">
Product</text>
<text font-family="Dialog" font-size="12" x="452" y="60">
«interface»</text>
<rect fill="#000000" height="1" stroke="#000000" stroke-width="1" width="115" x="430" y="88"/>
<line fill="#000000" stroke="#000000" stroke-width="1" x1="534" x2="534" y1="166" y2="161"/>
<line fill="#000000" stroke="#000000" stroke-width="1" x1="534" x2="534" y1="156" y2="151"/>
<line fill="#000000" stroke="#000000" stroke-width="1" x1="534" x2="534" y1="146" y2="141"/>
<line fill="#000000" stroke="#000000" stroke-width="1" x1="534" x2="534" y1="136" y2="131"/>
<line fill="#000000" stroke="#000000" stroke-width="1" x1="534" x2="534" y1="126" y2="121"/>
<line fill="#000000" stroke="#000000" stroke-width="1" x1="534" x2="534" y1="116" y2="111"/>
<line fill="#000000" stroke="#000000" stroke-width="1" x1="541" x2="534" y1="122" y2="110"/>
<line fill="#000000" stroke="#000000" stroke-width="1" x1="527" x2="534" y1="122" y2="110"/>
<line fill="#000000" stroke="#000000" stroke-width="1" x1="219" x2="223" y1="166" y2="165"/>
<line fill="#000000" stroke="#000000" stroke-width="1" x1="228" x2="233" y1="164" y2="163"/>
<line fill="#000000" stroke="#000000" stroke-width="1" x1="238" x2="243" y1="161" y2="160"/>
<line fill="#000000" stroke="#000000" stroke-width="1" x1="248" x2="252" y1="159" y2="158"/>
<line fill="#000000" stroke="#000000" stroke-width="1" x1="257" x2="262" y1="156" y2="155"/>
<line fill="#000000" stroke="#000000" stroke-width="1" x1="267" x2="272" y1="154" y2="152"/>
<line fill="#000000" stroke="#000000" stroke-width="1" x1="277" x2="281" y1="151" y2="150"/>
<line fill="#000000" stroke="#000000" stroke-width="1" x1="286" x2="291" y1="149" y2="147"/>
<line fill="#000000" stroke="#000000" stroke-width="1" x1="296" x2="301" y1="146" y2="145"/>
<line fill="#000000" stroke="#000000" stroke-width="1" x1="306" x2="310" y1="143" y2="142"/>
<line fill="#000000" stroke="#000000" stroke-width="1" x1="315" x2="320" y1="141" y2="140"/>
<line fill="#000000" stroke="#000000" stroke-width="1" x1="325" x2="330" y1="138" y2="137"/>
<line fill="#000000" stroke="#000000" stroke-width="1" x1="335" x2="339" y1="136" y2="134"/>
<line fill="#000000" stroke="#000000" stroke-width="1" x1="344" x2="349" y1="133" y2="132"/>
<line fill="#000000" stroke="#000000" stroke-width="1" x1="354" x2="359" y1="131" y2="129"/>
<line fill="#000000" stroke="#000000" stroke-width="1" x1="364" x2="369" y1="128" y2="127"/>
<line fill="#000000" stroke="#000000" stroke-width="1" x1="373" x2="378" y1="125" y2="124"/>
<line fill="#000000" stroke="#000000" stroke-width="1" x1="383" x2="388" y1="123" y2="122"/>
<line fill="#000000" stroke="#000000" stroke-width="1" x1="393" x2="398" y1="120" y2="119"/>
<line fill="#000000" stroke="#000000" stroke-width="1" x1="402" x2="407" y1="118" y2="116"/>
<line fill="#000000" stroke="#000000" stroke-width="1" x1="412" x2="417" y1="115" y2="114"/>
<line fill="#000000" stroke="#000000" stroke-width="1" x1="422" x2="427" y1="113" y2="111"/>
<line fill="#000000" stroke="#000000" stroke-width="1" x1="420" x2="430" y1="119" y2="110"/>
<line fill="#000000" stroke="#000000" stroke-width="1" x1="416" x2="430" y1="106" y2="110"/>
<rect fill="#ffffff" height="66" stroke="#ffffff" stroke-width="1" width="66" x="374" y="166"/>
<rect fill="none" height="66" stroke="#000000" stroke-width="1" width="66" x="374" y="166"/>
<text font-family="Dialog" font-size="12" x="382" y="179">
Director</text>
<rect fill="#000000" height="1" stroke="#000000" stroke-width="1" width="66" x="374" y="189"/>
<rect fill="#000000" height="1" stroke="#000000" stroke-width="1" width="66" x="374" y="210"/>
<rect fill="#ffffff" height="67" stroke="#ffffff" stroke-width="1" width="109" x="374" y="262"/>
<rect fill="none" height="67" stroke="#000000" stroke-width="1" width="109" x="374" y="262"/>
<text font-family="Dialog" font-size="12" font-style="italic" x="379" y="275">
abstract Builder</text>
<rect fill="#000000" height="1" stroke="#000000" stroke-width="1" width="109" x="374" y="285"/>
<rect fill="#000000" height="1" stroke="#000000" stroke-width="1" width="109" x="374" y="306"/>
<polyline fill="none" points="502,224 440,224" stroke="#000000" stroke-width="1"/>
<polygon fill="#ffffff" points="502,224 492,229 482,224 492,219" stroke="#ffffff" stroke-width="1"/>
<polygon fill="none" points="502,224 492,229 482,224 492,219" stroke="#000000" stroke-width="1"/>
<polyline fill="none" points="414,232 414,262" stroke="#000000" stroke-width="1"/>
<polygon fill="#ffffff" points="414,232 419,242 414,252 409,242" stroke="#ffffff" stroke-width="1"/>
<polygon fill="none" points="414,232 419,242 414,252 409,242" stroke="#000000" stroke-width="1"/>
<rect fill="#ffffff" height="67" stroke="#ffffff" stroke-width="1" width="110" x="510" y="262"/>
<rect fill="none" height="67" stroke="#000000" stroke-width="1" width="110" x="510" y="262"/>
<text font-family="Dialog" font-size="12" x="515" y="275">
ConcreteBuilder</text>
<rect fill="#000000" height="1" stroke="#000000" stroke-width="1" width="110" x="510" y="285"/>
<rect fill="#000000" height="1" stroke="#000000" stroke-width="1" width="110" x="510" y="306"/>
<polyline fill="none" points="510,278 483,278" stroke="#000000" stroke-width="1"/>
<polygon fill="#ffffff" points="483,278 495,271 495,285" stroke="#ffffff" stroke-width="1"/>
<polygon fill="none" points="483,278 495,271 495,285" stroke="#000000" stroke-width="1"/>
</svg>
